<svg xmlns="http://www.w3.org/2000/svg" viewBox="0 0 512 512">
  <defs>
    <linearGradient id="bg" x1="0" y1="0" x2="1" y2="1">
      <stop offset="0%" stop-color="#be123c"/>
      <stop offset="55%" stop-color="#9f1239"/>
      <stop offset="100%" stop-color="#4c0519"/>
    </linearGradient>
    <linearGradient id="roof" x1="0" y1="0" x2="1" y2="1">
      <stop offset="0%" stop-color="#fecdd3"/>
      <stop offset="100%" stop-color="#ffe4e6"/>
    </linearGradient>
  </defs>
  <rect width="512" height="512" rx="112" fill="url(#bg)"/>
  <circle cx="390" cy="122" r="52" fill="#ffffff" opacity="0.12"/>
  <path d="M119 243 256 128l137 115v147c0 14-12 26-26 26H145c-14 0-26-12-26-26V243Z" fill="#fff1f2"/>
  <path d="M92 252c-10 0-16-13-8-20L241 101a23 23 0 0 1 30 0l157 131c8 7 2 20-8 20h-34L256 143 126 252H92Z" fill="url(#roof)"/>
  <path d="M209 310c0-26 21-47 47-47s47 21 47 47v106h-94V310Z" fill="#9f1239"/>
  <path d="M201 229h110v24H201z" fill="#9f1239" opacity="0.1"/>
  <path d="M346 278c-20 0-36 16-36 36 0 39 40 67 76 92 36-25 76-53 76-92 0-20-16-36-36-36-17 0-31 10-40 24-9-14-23-24-40-24Z" fill="#be123c"/>
</svg>
